<svg xmlns="http://www.w3.org/2000/svg" viewBox="0 0 200 200" fill="none" aria-hidden="true">
  <defs>
    <linearGradient id="g" x1="0%" y1="0%" x2="100%" y2="100%">
      <stop offset="0%" style="stop-color:#1e3a5f"/>
      <stop offset="100%" style="stop-color:#2d5580"/>
    </linearGradient>
  </defs>
  <!-- Globe -->
  <circle cx="100" cy="92" r="52" fill="url(#g)"/>
  <!-- Continents (orange) -->
  <path fill="#e67e22" d="M72 70c8-4 18-2 24 4 6 8 4 18-2 24-6 4-14 4-20 0s-8-12-6-20 2-10 4-8zm38 8c6-2 12 2 14 8 2 10-6 18-16 18-8 0-14-6-14-14 0-6 8-10 16-12zm-48 28c10 2 18 10 20 20 2 12-6 22-18 24-10 2-20-4-24-14-4-10 8-32 22-30z"/>
  <!-- Orbite -->
  <ellipse cx="100" cy="92" rx="68" ry="22" transform="rotate(-28 100 92)" stroke="#1e3a5f" stroke-width="3" fill="none" opacity="0.9"/>
  <!-- Satellite -->
  <rect x="158" y="58" width="14" height="8" rx="2" fill="#1e3a5f" transform="rotate(15 165 62)"/>
  <path stroke="#1e3a5f" stroke-width="2" d="M152 62h6"/>
  <!-- GEOSOM -->
  <text x="100" y="178" text-anchor="middle" font-family="system-ui,Segoe UI,Arial,sans-serif" font-size="26" font-weight="800" font-style="italic" fill="#e67e22">GEOSOM</text>
</svg>
